<mxfile host="65bd71144e">
    <diagram id="minfnp9ckFct6MOEw7iv" name="Page-1">
        <mxGraphModel dx="777" dy="392" grid="1" gridSize="10" guides="1" tooltips="1" connect="1" arrows="1" fold="1" page="1" pageScale="1" pageWidth="827" pageHeight="1169" math="0" shadow="0">
            <root>
                <mxCell id="0"/>
                <mxCell id="1" parent="0"/>
                <mxCell id="2" value="App" style="whiteSpace=wrap;html=1;" vertex="1" parent="1">
                    <mxGeometry x="270" y="40" width="100" height="40" as="geometry"/>
                </mxCell>
                <mxCell id="3" value="Home" style="whiteSpace=wrap;html=1;" vertex="1" parent="1">
                    <mxGeometry x="180" y="110" width="100" height="40" as="geometry"/>
                </mxCell>
                <mxCell id="4" value="Flow" style="whiteSpace=wrap;html=1;" vertex="1" parent="1">
                    <mxGeometry x="364" y="110" width="100" height="40" as="geometry"/>
                </mxCell>
            </root>
        </mxGraphModel>
    </diagram>
</mxfile>